<svg xmlns="http://www.w3.org/2000/svg" xmlns:xlink="http://www.w3.org/1999/xlink" version="1.1" x="0px" y="0px" viewBox="0 0 100 125" enable-background="new 0 0 100 100" xml:space="preserve"><g><path d="M84.175,25.158c-2.071-1.363-4.473-2.193-6.943-2.399c-0.42-0.035-0.843-0.053-1.255-0.053   c-0.148,0-0.289,0.004-0.418,0.007c-0.006,0-0.011,0-0.017,0C74.182,12.693,67.14,4.298,57.461,1.227   c-0.948-0.301-1.925-0.55-2.904-0.741C52.899,0.164,51.201,0,49.508,0c-7.605,0-14.834,3.296-19.832,9.044l-1.264,1.453   c-5.004,0.384-9.657,2.518-13.245,6.105C11.19,20.58,9,25.868,9,31.494s2.19,10.914,6.167,14.892   c3.979,3.977,9.267,6.167,14.892,6.167h45.918c8.229,0,14.924-6.694,14.924-14.923C90.9,32.593,88.386,27.931,84.175,25.158z    M75.977,49.496H30.059c-9.941,0-18.002-8.06-18.002-18.002s8.061-18.002,18.002-18.002c0.022,0,0.044,0,0.065,0   c0,0,4.899,0.051,8.4,3.013c0,0-1.91-3.908-6.541-5.455c4.256-4.896,10.527-7.993,17.524-7.993c1.527,0,3.02,0.148,4.464,0.429   c0.874,0.17,1.729,0.389,2.564,0.654c8.578,2.722,14.997,10.292,16.04,19.493c-0.082,0.046-0.166,0.093-0.252,0.143   c-0.562,0.32-1.079,0.692-1.557,1.096c-0.757,0.637-1.411,1.353-1.969,2.073c-0.532,0.687-0.977,1.375-1.337,2   c-0.813,1.416-1.198,2.507-1.198,2.507c0.457-0.914,1.039-1.682,1.666-2.324c0.711-0.731,1.48-1.298,2.191-1.73   c1.423-0.864,2.605-1.185,2.605-1.185c0.932-0.264,1.908-0.417,2.918-0.445c0.11-0.003,0.221-0.005,0.332-0.005   c0.337,0,0.671,0.014,1.001,0.042c2.026,0.169,3.907,0.847,5.517,1.906c3.222,2.122,5.35,5.771,5.35,9.917   C87.844,44.183,82.531,49.496,75.977,49.496z"/><path d="M22.954,56.886c-0.844,0-1.528,0.685-1.528,1.529v7.071c0,0.844,0.685,1.528,1.528,1.528c0.845,0,1.528-0.685,1.528-1.528   v-7.071C24.482,57.57,23.799,56.886,22.954,56.886z"/><path d="M35.855,65.486v-7.071c0-0.845-0.685-1.529-1.529-1.529c-0.844,0-1.528,0.685-1.528,1.529v7.071   c0,0.844,0.685,1.528,1.528,1.528C35.171,67.015,35.855,66.33,35.855,65.486z"/><path d="M28.151,73.263c-0.845,0-1.529,0.685-1.529,1.528v7.071c0,0.844,0.685,1.528,1.529,1.528c0.844,0,1.528-0.685,1.528-1.528   v-7.071C29.68,73.947,28.995,73.263,28.151,73.263z"/><path d="M69.728,76.798c-0.844,0-1.528,0.685-1.528,1.528v7.071c0,0.845,0.685,1.528,1.528,1.528c0.845,0,1.529-0.684,1.529-1.528   v-7.071C71.257,77.482,70.572,76.798,69.728,76.798z"/><path d="M57.048,82.606c-0.844,0-1.528,0.685-1.528,1.528v7.071c0,0.845,0.685,1.529,1.528,1.529c0.845,0,1.528-0.685,1.528-1.529   v-7.071C58.576,83.291,57.893,82.606,57.048,82.606z"/><path d="M64.69,62.031c-0.844,0-1.528,0.684-1.528,1.528v7.071c0,0.845,0.685,1.528,1.528,1.528c0.845,0,1.529-0.684,1.529-1.528   V63.56C66.22,62.715,65.535,62.031,64.69,62.031z"/><path d="M75.379,56.886c-0.844,0-1.528,0.685-1.528,1.529v7.071c0,0.844,0.685,1.528,1.528,1.528c0.845,0,1.529-0.685,1.529-1.528   v-7.071C76.908,57.57,76.224,56.886,75.379,56.886z"/><polygon points="36.686,71.161 42.506,71.161 36.686,82.931 42.311,82.931 34.326,99.406 52.182,81.466 47.397,81.466    56.395,70.121 49.539,70.121 60.285,55.822 44.271,55.822  "/></g>d</svg>
